<svg width="200" height="200" viewBox="0 0 200 200" fill="none" xmlns="http://www.w3.org/2000/svg">
<g clip-path="url(#clip0)">
<rect width="200" height="200" fill="black"/>
<path d="M95.466 137.137C95.6742 136.033 97.224 135.06 98.0105 134.613C101.179 132.852 106.384 133.115 108.998 135.98C109.946 137.005 110.2 138.504 108.512 137.505C107.217 136.743 105.759 136.296 104.279 136.296C102.96 136.296 101.549 136.217 100.231 136.322C99.0051 136.427 97.8023 136.848 96.692 137.505C96.1137 137.873 95.2579 138.215 95.466 137.137ZM77.6089 214.131C76.5912 214.131 75.7584 215.077 75.7584 216.234C75.7584 217.39 76.5912 218.336 77.6089 218.336C78.6267 218.336 79.4594 217.39 79.4594 216.234C79.4594 215.077 78.6267 214.131 77.6089 214.131ZM74.8101 212.159C74.3012 212.159 73.8617 212.632 73.8617 213.237C73.8617 213.815 74.2781 214.315 74.8101 214.315C75.319 214.315 75.7584 213.841 75.7584 213.237C75.7584 212.632 75.3421 212.159 74.8101 212.159ZM127.664 214.131C126.647 214.131 125.814 215.077 125.814 216.234C125.814 217.39 126.647 218.336 127.664 218.336C128.682 218.336 129.515 217.39 129.515 216.234C129.515 215.077 128.682 214.131 127.664 214.131ZM130.463 212.159C129.954 212.159 129.515 212.632 129.515 213.237C129.515 213.815 129.931 214.315 130.463 214.315C130.972 214.315 131.412 213.841 131.412 213.237C131.388 212.632 130.972 212.159 130.463 212.159ZM171.451 177.881C166.733 192.129 156 194.757 156.208 202.275C156.416 209.793 150.286 229.298 134.742 229.535C119.198 229.771 119.291 230.218 114.873 223.83C110.756 217.863 106.546 215.787 102.66 215.708C98.7738 215.76 94.5639 217.863 90.4466 223.83C86.0286 230.218 86.1211 229.771 70.5771 229.535C55.0331 229.298 48.9034 209.793 49.1116 202.275C49.3197 194.757 38.5638 192.129 33.8682 177.881C29.1495 163.634 45.2024 154.723 45.2024 154.723L44.2078 153.119V145.812C38.4944 139.766 44.2078 134.64 44.2078 134.64C43.9071 126.096 48.6258 124.835 48.6258 124.835C44.7167 119.131 50.2219 116.738 50.2219 116.738L50.8233 102.491C54.0847 65.716 97.8948 67.8189 102.637 68.1344C107.378 67.7926 151.189 65.716 154.496 102.491L155.098 116.738C155.098 116.738 160.626 119.131 156.694 124.835C156.694 124.835 161.412 126.096 161.112 134.64C161.112 134.64 166.825 139.766 161.112 145.812V153.119L160.117 154.723C160.117 154.749 176.17 163.634 171.451 177.881ZM153.964 129.619C153.964 129.619 155.098 152.041 155.098 152.62L157.573 151.332C157.573 151.332 158.405 136.953 157.203 132.852C156 128.751 153.964 129.619 153.964 129.619ZM55.2644 111.954L55.6808 117.658H149.593L150.24 108.8C150.842 100.809 148.598 92.7913 143.856 86.8505C143.347 86.2196 142.838 85.615 142.283 85.0104C139.091 81.5669 135.298 78.9119 131.227 77.0193C125.536 74.338 119.407 73.0763 113.277 72.5768C109.322 72.2614 105.343 72.3665 101.388 72.3402C97.2471 72.3139 93.1067 72.3665 88.9894 72.866C83.3685 73.5494 77.7708 74.9952 72.6126 77.6764C61.0471 83.6961 54.2004 97.5229 55.2644 111.954ZM135.46 139.529L139.299 139.187C143.74 136.269 143.972 126.096 143.972 126.096H141.335C142.838 129.777 135.46 139.529 135.46 139.529ZM63.9385 126.123H61.3016C61.3016 126.123 61.5329 136.296 65.974 139.214L69.8138 139.555C69.8138 139.529 62.435 129.777 63.9385 126.123ZM51.9798 165.001L62.6201 183.375C62.6201 183.375 67.4313 187.818 82.8828 172.203C84.0625 171.02 85.2422 169.864 86.4218 168.707C88.7349 166.473 91.1174 164.291 93.5693 162.241C94.5871 161.4 95.628 160.558 96.692 159.77C96.877 159.638 97.0852 159.481 97.2703 159.349C97.6866 159.034 98.103 158.718 98.5425 158.403C98.9588 158.087 99.3983 157.798 99.8378 157.535C100.277 157.273 100.74 157.036 101.203 156.852C101.434 156.773 101.688 156.694 101.92 156.615C102.614 156.431 103.307 156.642 103.978 156.904C104.487 157.088 104.996 157.325 105.482 157.641C106.523 158.271 107.517 158.981 108.489 159.717C110.478 161.216 112.398 162.819 114.272 164.501C117.047 166.972 119.73 169.575 122.367 172.23C137.819 187.844 142.63 183.401 142.63 183.401L153.27 165.027L150.865 146.784L149.963 147.468C149.963 147.468 149.754 155.669 149.569 156.142C149.361 156.589 145.452 165.369 145.059 164.922C144.666 164.475 136.338 156.037 136.338 156.037C136.338 156.037 128.381 155.485 120.633 144.392C120.378 144.024 120.54 143.446 120.933 143.341C121.095 143.288 121.257 143.314 121.396 143.419C123.385 144.839 138.744 155.564 142.954 152.173C147.464 148.519 150.078 140.318 150.078 140.318V125.15H147.464C147.464 125.15 148.459 138.609 141.034 142.368C133.609 146.127 118.25 134.035 109.923 126.964H95.3041C86.977 134.035 71.618 146.127 64.193 142.368C56.7679 138.609 57.7626 125.15 57.7626 125.15H55.1488V140.318C55.1488 140.318 57.7626 148.519 62.2731 152.173C66.4829 155.59 81.8419 144.865 83.8312 143.419C83.97 143.314 84.1319 143.288 84.2938 143.341C84.7101 143.472 84.8721 144.024 84.5945 144.392C76.8456 155.485 68.8886 156.037 68.8886 156.037C68.8886 156.037 60.5614 164.475 60.1682 164.922C59.7749 165.369 55.8427 156.589 55.6576 156.142C55.4495 155.695 55.2644 147.468 55.2644 147.468L54.3623 146.784L51.9798 165.001ZM47.6774 151.332L50.1525 152.62C50.1525 152.015 51.2859 129.619 51.2859 129.619C51.2859 129.619 49.2504 128.751 48.0475 132.878C46.8679 136.979 47.6774 151.332 47.6774 151.332ZM51.9798 191.813L59.3586 185.662C59.3586 185.662 49.2735 169.154 49.2735 168.812C49.2735 168.471 48.5102 157.693 48.5102 157.693C48.5102 157.693 37.361 161.031 37.4536 173.781C37.5229 186.53 47.4693 192.26 47.7006 192.076C47.9088 191.892 51.9798 191.813 51.9798 191.813ZM82.4664 215.76C82.4664 212.159 77.5395 205.85 72.9365 205.85C68.3334 205.85 65.7427 209.872 67.6395 214.393C68.9811 217.653 71.3636 221.57 75.9666 221.57C80.5697 221.57 82.4664 219.335 82.4664 215.76ZM132.337 205.824C127.734 205.824 122.807 212.159 122.807 215.734C122.807 219.335 124.727 221.543 129.307 221.543C133.887 221.543 136.269 217.6 137.634 214.367C139.531 209.846 136.917 205.824 132.337 205.824ZM142.653 188.843C142.653 188.843 126.901 184.611 119.962 177.881C113.161 171.283 106.569 169.18 102.614 168.996C98.6812 169.18 92.0658 171.283 85.2653 177.881C78.3491 184.611 62.5738 188.843 62.5738 188.843C43.005 199.095 61.7642 219.966 61.7642 219.966C60.1682 215.971 61.4635 209.82 61.4635 209.82C70.1839 191.787 91.4644 211.186 91.4644 211.186H92.7597V196.65C92.7597 196.124 93.1529 195.677 93.6156 195.677H96.2294C96.692 195.677 97.0852 195.23 97.0852 194.705C97.0852 194.179 97.4784 193.732 97.9411 193.732H98.7969C99.7453 193.732 100.509 192.865 100.509 191.787H104.672C104.672 192.865 105.435 193.732 106.384 193.732H107.24C107.702 193.732 108.096 194.179 108.096 194.705C108.096 195.23 108.489 195.677 108.951 195.677H111.565C112.028 195.677 112.421 196.124 112.421 196.65V211.186H113.716C113.716 211.186 134.997 191.787 143.717 209.82C143.717 209.82 145.013 215.971 143.417 219.966C143.463 219.966 162.222 199.095 142.653 188.843ZM167.82 173.754C167.889 161.005 156.763 157.667 156.763 157.667C156.763 157.667 156 168.444 156 168.786C156 169.128 145.915 185.636 145.915 185.636L153.293 191.787C153.293 191.787 157.365 191.866 157.573 192.05C157.804 192.234 167.75 186.503 167.82 173.754Z" fill="white"/>
<path d="M28.23 23H33.09C34.73 23 35.96 23.44 36.78 24.32C37.6 25.2 38.01 26.49 38.01 28.19V30.26C38.01 31.96 37.6 33.25 36.78 34.13C35.96 35.01 34.73 35.45 33.09 35.45H31.53V44H28.23V23ZM33.09 32.45C33.63 32.45 34.03 32.3 34.29 32C34.57 31.7 34.71 31.19 34.71 30.47V27.98C34.71 27.26 34.57 26.75 34.29 26.45C34.03 26.15 33.63 26 33.09 26H31.53V32.45H33.09ZM39.3523 23H44.2423C45.9423 23 47.1823 23.4 47.9623 24.2C48.7423 24.98 49.1323 26.19 49.1323 27.83V29.12C49.1323 31.3 48.4123 32.68 46.9723 33.26V33.32C47.7723 33.56 48.3323 34.05 48.6523 34.79C48.9923 35.53 49.1623 36.52 49.1623 37.76V41.45C49.1623 42.05 49.1823 42.54 49.2223 42.92C49.2623 43.28 49.3623 43.64 49.5223 44H46.1623C46.0423 43.66 45.9623 43.34 45.9223 43.04C45.8823 42.74 45.8623 42.2 45.8623 41.42V37.58C45.8623 36.62 45.7023 35.95 45.3823 35.57C45.0823 35.19 44.5523 35 43.7923 35H42.6523V44H39.3523V23ZM43.8523 32C44.5123 32 45.0023 31.83 45.3223 31.49C45.6623 31.15 45.8323 30.58 45.8323 29.78V28.16C45.8323 27.4 45.6923 26.85 45.4123 26.51C45.1523 26.17 44.7323 26 44.1523 26H42.6523V32H43.8523ZM55.7719 44.3C54.1519 44.3 52.9119 43.84 52.0519 42.92C51.1919 42 50.7619 40.7 50.7619 39.02V27.98C50.7619 26.3 51.1919 25 52.0519 24.08C52.9119 23.16 54.1519 22.7 55.7719 22.7C57.3919 22.7 58.6319 23.16 59.4919 24.08C60.3519 25 60.7819 26.3 60.7819 27.98V39.02C60.7819 40.7 60.3519 42 59.4919 42.92C58.6319 43.84 57.3919 44.3 55.7719 44.3ZM55.7719 41.3C56.9119 41.3 57.4819 40.61 57.4819 39.23V27.77C57.4819 26.39 56.9119 25.7 55.7719 25.7C54.6319 25.7 54.0619 26.39 54.0619 27.77V39.23C54.0619 40.61 54.6319 41.3 55.7719 41.3ZM63.3436 44.12C62.7436 44.12 62.2336 44.08 61.8136 44V41C62.1336 41.08 62.4936 41.12 62.8936 41.12C63.5536 41.12 64.0436 40.96 64.3636 40.64C64.6836 40.3 64.8436 39.79 64.8436 39.11V23H68.1436V39.02C68.1436 40.74 67.7436 42.02 66.9436 42.86C66.1636 43.7 64.9636 44.12 63.3436 44.12ZM70.053 23H79.053V26H73.353V31.55H77.883V34.55H73.353V41H79.053V44H70.053V23ZM85.1515 44.3C83.5715 44.3 82.3615 43.85 81.5215 42.95C80.7015 42.05 80.2915 40.78 80.2915 39.14V27.86C80.2915 26.22 80.7015 24.95 81.5215 24.05C82.3615 23.15 83.5715 22.7 85.1515 22.7C86.7315 22.7 87.9315 23.15 88.7515 24.05C89.5915 24.95 90.0115 26.22 90.0115 27.86V30.08H86.8915V27.65C86.8915 26.35 86.3415 25.7 85.2415 25.7C84.1415 25.7 83.5915 26.35 83.5915 27.65V39.38C83.5915 40.66 84.1415 41.3 85.2415 41.3C86.3415 41.3 86.8915 40.66 86.8915 39.38V36.17H90.0115V39.14C90.0115 40.78 89.5915 42.05 88.7515 42.95C87.9315 43.85 86.7315 44.3 85.1515 44.3ZM94.1159 26H90.6659V23H100.866V26H97.4159V44H94.1159V26ZM111.018 44.3C109.438 44.3 108.228 43.85 107.388 42.95C106.568 42.05 106.158 40.78 106.158 39.14V27.86C106.158 26.22 106.568 24.95 107.388 24.05C108.228 23.15 109.438 22.7 111.018 22.7C112.598 22.7 113.798 23.15 114.618 24.05C115.458 24.95 115.878 26.22 115.878 27.86V30.08H112.758V27.65C112.758 26.35 112.208 25.7 111.108 25.7C110.008 25.7 109.458 26.35 109.458 27.65V39.38C109.458 40.66 110.008 41.3 111.108 41.3C112.208 41.3 112.758 40.66 112.758 39.38V36.17H115.878V39.14C115.878 40.78 115.458 42.05 114.618 42.95C113.798 43.85 112.598 44.3 111.018 44.3ZM117.403 23H120.703V41H126.133V44H117.403V23ZM131.918 44.3C130.298 44.3 129.058 43.84 128.198 42.92C127.338 42 126.908 40.7 126.908 39.02V27.98C126.908 26.3 127.338 25 128.198 24.08C129.058 23.16 130.298 22.7 131.918 22.7C133.538 22.7 134.778 23.16 135.638 24.08C136.498 25 136.928 26.3 136.928 27.98V39.02C136.928 40.7 136.498 42 135.638 42.92C134.778 43.84 133.538 44.3 131.918 44.3ZM131.918 41.3C133.058 41.3 133.628 40.61 133.628 39.23V27.77C133.628 26.39 133.058 25.7 131.918 25.7C130.778 25.7 130.208 26.39 130.208 27.77V39.23C130.208 40.61 130.778 41.3 131.918 41.3ZM138.71 23H142.85L146.06 35.57H146.12V23H149.06V44H145.67L141.71 28.67H141.65V44H138.71V23ZM151.062 23H160.062V26H154.362V31.55H158.892V34.55H154.362V41H160.062V44H151.062V23ZM165.859 44.3C164.259 44.3 163.049 43.85 162.229 42.95C161.409 42.03 160.999 40.72 160.999 39.02V37.82H164.119V39.26C164.119 40.62 164.689 41.3 165.829 41.3C166.389 41.3 166.809 41.14 167.089 40.82C167.389 40.48 167.539 39.94 167.539 39.2C167.539 38.32 167.339 37.55 166.939 36.89C166.539 36.21 165.799 35.4 164.719 34.46C163.359 33.26 162.409 32.18 161.869 31.22C161.329 30.24 161.059 29.14 161.059 27.92C161.059 26.26 161.479 24.98 162.319 24.08C163.159 23.16 164.379 22.7 165.979 22.7C167.559 22.7 168.749 23.16 169.549 24.08C170.369 24.98 170.779 26.28 170.779 27.98V28.85H167.659V27.77C167.659 27.05 167.519 26.53 167.239 26.21C166.959 25.87 166.549 25.7 166.009 25.7C164.909 25.7 164.359 26.37 164.359 27.71C164.359 28.47 164.559 29.18 164.959 29.84C165.379 30.5 166.129 31.3 167.209 32.24C168.589 33.44 169.539 34.53 170.059 35.51C170.579 36.49 170.839 37.64 170.839 38.96C170.839 40.68 170.409 42 169.549 42.92C168.709 43.84 167.479 44.3 165.859 44.3Z" fill="white"/>
</g>
<defs>
<clipPath id="clip0">
<rect width="200" height="200" fill="white"/>
</clipPath>
</defs>
</svg>
